<svg width="24" height="36" viewBox="0 0 24 36" fill="none" xmlns="http://www.w3.org/2000/svg">
  <path d="M17.8 7.5C17.8 11.6 14.4 15 10.3 15C6.2 15 2.8 11.6 2.8 7.5C2.8 3.4 6.2 0 10.3 0C14.4 0 17.8 3.4 17.8 7.5Z" fill="#FF69B4"/>
  <path d="M21.2 19.5C21.2 23.6 17.8 27 13.7 27C9.6 27 6.2 23.6 6.2 19.5C6.2 15.4 9.6 12 13.7 12C17.8 12 21.2 15.4 21.2 19.5Z" fill="#FF69B4"/>
  <path d="M19.5 31.5C19.5 33.9 17.5 36 15 36C12.5 36 10.5 33.9 10.5 31.5C10.5 29.1 12.5 27 15 27C17.5 27 19.5 29.1 19.5 31.5Z" fill="#FF69B4"/>
</svg> 