<svg width="24" height="36" viewBox="0 0 24 36" fill="none" xmlns="http://www.w3.org/2000/svg">
  <path d="M6.2 7.5C6.2 11.6 9.6 15 13.7 15C17.8 15 21.2 11.6 21.2 7.5C21.2 3.4 17.8 0 13.7 0C9.6 0 6.2 3.4 6.2 7.5Z" fill="#FF69B4"/>
  <path d="M2.8 19.5C2.8 23.6 6.2 27 10.3 27C14.4 27 17.8 23.6 17.8 19.5C17.8 15.4 14.4 12 10.3 12C6.2 12 2.8 15.4 2.8 19.5Z" fill="#FF69B4"/>
  <path d="M4.5 31.5C4.5 33.9 6.5 36 9 36C11.5 36 13.5 33.9 13.5 31.5C13.5 29.1 11.5 27 9 27C6.5 27 4.5 29.1 4.5 31.5Z" fill="#FF69B4"/>
</svg> 